<svg width="191" height="102" viewBox="0 0 191 102" fill="none" xmlns="http://www.w3.org/2000/svg">
<g clip-path="url(#clip0_363_3)">
<mask id="mask0_363_3" style="mask-type:luminance" maskUnits="userSpaceOnUse" x="0" y="0" width="191" height="102">
<path d="M190.1 0H0V81.1H106V101.4H144.3V81.1H190.1V0Z" fill="white"/>
</mask>
<g mask="url(#mask0_363_3)">
<g opacity="0.3">
<path opacity="0.091" d="M12.4 6.09968L174.7 26.4997C181.1 28.0997 185.7 34.6997 185 41.2997L181.7 62.5997C181 69.0997 175 74.9997 168.4 75.6997L147 77.8997L117.2 97.8997L104.4 82.1997L12.7 91.3997C6.10005 91.9997 0.800049 87.1997 0.800049 80.5997V15.1997C0.800049 8.59968 6.00005 4.49968 12.4 6.09968Z" fill="#29A71A"/>
<path opacity="0.182" d="M12.6 5.89997L175 26.2C181.4 27.8 186 34.4 185.3 41L182 62.3C181.2 68.8 175.2 74.8 168.7 75.4L147.3 77.6L117.5 97.6L104.7 81.9L13 91.1C6.4 91.8 1 86.9 1 80.3V15C1 8.39997 6.2 4.29997 12.6 5.89997Z" fill="#29A71A"/>
<path opacity="0.273" d="M12.9001 5.59968L175.2 25.9997C181.6 27.5997 186.2 34.1997 185.5 40.7997L182.2 62.0997C181.4 68.5997 175.4 74.5997 168.9 75.1997L147.5 77.3997L117.7 97.3997L104.9 81.6997L13.2001 90.8997C6.60007 91.4997 1.20007 86.6997 1.20007 80.0997V14.6997C1.20007 8.09968 6.50007 3.99968 12.9001 5.59968Z" fill="#29A71A"/>
<path opacity="0.364" d="M13.1 5.39997L175.4 25.8C181.8 27.4 186.4 34 185.7 40.6L182.4 61.9C181.6 68.4 175.6 74.4 169.1 75L147.7 77.2L117.9 97.2L105.2 81.5L13.5 90.7C6.8 91.3 1.5 86.4 1.5 79.8V14.5C1.5 7.89997 6.7 3.79997 13.1 5.39997Z" fill="#29A71A"/>
<path opacity="0.455" d="M13.3001 5.09976L175.6 25.4998C182 27.0998 186.6 33.6998 185.9 40.2998L182.6 61.5998C181.8 68.0998 175.8 74.0998 169.3 74.6998L147.9 76.8998L118.1 96.8998L105.3 81.1998L13.6001 90.3998C7.10007 91.0998 1.70007 86.1998 1.70007 79.5998V14.2998C1.70007 7.69976 6.90007 3.59976 13.3001 5.09976Z" fill="#29A71A"/>
<path opacity="0.545" d="M13.6 4.89997L175.9 25.3C182.3 26.9 186.9 33.5 186.2 40.1L182.9 61.4C182.1 67.9 176.1 73.9 169.6 74.5L148.2 76.7L118.4 96.7L105.6 81L13.9 90.2C7.30002 90.8 1.90002 86 1.90002 79.4V14C1.90002 7.39997 7.20003 3.29997 13.6 4.89997Z" fill="#29A71A"/>
<path opacity="0.636" d="M13.8001 4.59976L176.2 24.9998C182.6 26.5998 187.2 33.1998 186.5 39.7998L183.2 61.0998C182.4 67.5998 176.4 73.5998 169.9 74.1998L148.5 76.3998L118.7 96.3998L105.9 80.6998L14.2001 89.8998C7.50007 90.5998 2.20007 85.6998 2.20007 79.0998V13.7998C2.20007 7.19976 7.40007 3.09976 13.8001 4.59976Z" fill="#29A71A"/>
<path opacity="0.727" d="M14.1 4.39997L176.4 24.8C182.8 26.4 187.4 33 186.7 39.6L183.4 60.9C182.6 67.4 176.7 73.4 170.1 74L148.7 76.2L118.9 96.2L106.1 80.5L14.4 89.7C7.80002 90.3 2.40002 85.5 2.40002 78.9V13.5C2.40002 6.89997 7.60003 2.79997 14.1 4.39997Z" fill="#29A71A"/>
<path opacity="0.818" d="M14.3001 4.19977L176.6 24.5998C183 26.1998 187.6 32.7998 186.9 39.3998L183.6 60.6998C182.8 67.1998 176.8 73.1998 170.3 73.7998L148.9 75.9998L119.1 95.9998L106.3 80.2998L14.6001 89.4998C8.0001 90.0998 2.6001 85.1998 2.6001 78.5998V13.2998C2.6001 6.69977 7.9001 2.59977 14.3001 4.19977Z" fill="#29A71A"/>
<path opacity="0.909" d="M14.5 3.89997L176.8 24.3C183.2 25.9 187.8 32.5 187.1 39.1L183.8 60.4C183 66.9 177 72.9 170.5 73.5L149.1 75.7L119.3 95.7L106.5 80L14.8 89.2C8.20002 89.8 2.90002 85 2.90002 78.4V13C2.90002 6.39997 8.10002 2.29997 14.5 3.89997Z" fill="#29A71A"/>
<path d="M14.8001 3.69977L177.1 24.0998C183.5 25.6998 188.1 32.2998 187.4 38.8998L184.1 60.1998C183.3 66.6998 177.3 72.6998 170.8 73.2998L149.4 75.4998L119.6 95.4998L106.8 79.7998L15.0001 88.8998C8.5001 89.5998 3.1001 84.6998 3.1001 78.1998V12.7998C3.1001 6.19977 8.4001 2.09977 14.8001 3.69977Z" fill="#29A71A"/>
</g>
<path d="M14.8001 3.69977L177.1 24.0998C183.5 25.6998 188.1 32.2998 187.4 38.8998L184.1 60.1998C183.3 66.6998 177.3 72.6998 170.8 73.2998L149.4 75.4998L119.6 95.4998L106.8 79.7998L15.0001 88.8998C8.5001 89.5998 3.1001 84.6998 3.1001 78.1998V12.7998C3.1001 6.19977 8.4001 2.09977 14.8001 3.69977Z" fill="#29A71A"/>
<path d="M3.2001 11.0996V76.2996C3.2001 82.8996 8.6001 87.6996 15.1001 87.0996L106.8 77.8996L119.6 93.5996L149.4 73.5996L170.8 71.3996C177.4 70.6996 183.4 64.7996 184.1 58.2996L187.3 37.4996C187.3 37.9996 187.3 38.3996 187.2 38.8996L183.9 60.1996C183.1 66.6996 177.1 72.6996 170.6 73.2996L149.2 75.4996L119.4 95.4996L106.6 79.7996L15.0001 88.8996C8.5001 89.5996 3.1001 84.6996 3.1001 78.1996V12.7996C3.1001 12.1996 3.2001 11.6996 3.2001 11.0996Z" fill="url(#paint0_linear_363_3)"/>
<path d="M182.9 61.7996L186.2 40.4996C187 33.8996 182.3 27.2996 175.9 25.6996L13.6 5.29955C9.9 4.39955 6.6 5.39955 4.5 7.59955C6.4 4.29955 10.3 2.59955 14.8 3.69955L177.1 24.0996C183.5 25.6996 188.1 32.2996 187.4 38.8996L184.1 60.1996C183.8 62.9996 182.5 65.6996 180.6 67.8996C181.8 65.9996 182.7 63.8996 182.9 61.7996Z" fill="url(#paint1_linear_363_3)"/>
</g>
<path d="M21.5 32.6999H25.7V57.8999H34.1V62.0999H21.5V32.6999ZM36.4 32.6999H49V36.6999H40.6V45.3999H47.9V49.3999H40.6V57.9999H49V62.1999H36.4V32.6999ZM54.1 36.6999H49.2V32.6999H63.2V36.6999H58.3V62.1999H54.1V36.6999ZM64.4 32.6999H68.6V36.8999L64.4 39.9999V32.6999ZM85.5 41.1999H81.3V40.1999C81.3 39.1999 81.1 38.3999 80.6 37.6999C80.1 36.9999 79.4 36.5999 78.3 36.5999C77.7 36.5999 77.2 36.6999 76.9 36.8999C76.5 37.0999 76.2 37.3999 76 37.6999C75.8 37.9999 75.6 38.3999 75.6 38.8999C75.5 39.3999 75.5 39.7999 75.5 40.2999C75.5 40.8999 75.5 41.3999 75.6 41.7999C75.6 42.1999 75.7 42.4999 75.9 42.7999C76.1 43.0999 76.3 43.2999 76.6 43.5999C76.9 43.7999 77.4 43.9999 77.9 44.2999L81.1 45.5999C82 45.9999 82.8 46.3999 83.4 46.8999C84 47.3999 84.4 47.8999 84.7 48.5999C85 49.1999 85.2 49.9999 85.3 50.7999C85.4 51.5999 85.5 52.5999 85.5 53.6999C85.5 54.8999 85.4 56.0999 85.1 57.1999C84.8 58.2999 84.4 59.1999 83.9 59.8999C83.3 60.6999 82.6 61.2999 81.6 61.6999C80.7 62.0999 79.5 62.3999 78.2 62.3999C77.2 62.3999 76.2 62.1999 75.3 61.8999C74.4 61.5999 73.7 61.0999 73 60.3999C72.4 59.7999 71.9 58.9999 71.5 58.1999C71.1 57.2999 70.9 56.3999 70.9 55.3999V53.7999H75.1V55.0999C75.1 55.8999 75.3 56.5999 75.8 57.1999C76.3 57.7999 77 58.0999 78.1 58.0999C78.8 58.0999 79.4 57.9999 79.8 57.7999C80.2 57.5999 80.5 57.2999 80.7 56.8999C80.9 56.4999 81 56.0999 81.1 55.4999C81.2 54.8999 81.2 54.2999 81.2 53.6999C81.2 52.8999 81.2 52.2999 81.1 51.7999C81 51.2999 80.9 50.8999 80.7 50.5999C80.5 50.2999 80.3 49.9999 80 49.8999C79.7 49.6999 79.3 49.4999 78.7 49.2999L75.7 48.0999C73.9 47.3999 72.7 46.3999 72 45.0999C71.3 43.7999 71.1 42.2999 71.1 40.4999C71.1 39.3999 71.3 38.2999 71.6 37.3999C71.9 36.3999 72.4 35.5999 72.9 34.7999C73.5 34.0999 74.2 33.4999 75.2 33.0999C76.1 32.6999 77.2 32.4999 78.4 32.4999C79.3466 32.4961 80.2846 32.6797 81.1599 33.0401C82.0352 33.4005 82.8305 33.9307 83.5 34.5999C84.1 35.1999 84.6 35.8999 84.9 36.6999C85.2 37.4999 85.4 38.2999 85.4 39.0999V41.1999H85.5ZM109 55.5999C109 56.4999 108.8 57.3999 108.5 58.1999C108.2 58.9999 107.7 59.7999 107.1 60.3999C106.5 60.9999 105.8 61.4999 105 61.8999C104.2 62.2999 103.3 62.4999 102.4 62.4999C101.6 62.4999 100.8 62.3999 100 62.1999C99.2 61.9999 98.4 61.5999 97.8 61.0999C97.2 60.5999 96.6 59.8999 96.2 58.9999C95.8 58.0999 95.6 56.9999 95.6 55.5999V39.1999C95.6 38.1999 95.8 37.2999 96.1 36.4999C96.4 35.6999 96.9 34.9999 97.5 34.2999C98.1 33.6999 98.8 33.1999 99.7 32.8999C100.5 32.5999 101.5 32.3999 102.5 32.3999C103.5 32.3999 104.4 32.5999 105.2 32.8999C106 33.1999 106.7 33.6999 107.4 34.2999C108 34.8999 108.5 35.6999 108.8 36.4999C109.1 37.2999 109.3 38.2999 109.3 39.2999V40.9999H105.1V39.5999C105.1 38.7999 104.9 38.0999 104.4 37.3999C103.9 36.7999 103.3 36.4999 102.5 36.4999C101.5 36.4999 100.8 36.7999 100.4 37.4999C100.1 38.0999 99.9 38.9999 99.9 39.9999V55.0999C99.9 55.9999 100.1 56.6999 100.5 57.2999C100.9 57.8999 101.5 58.1999 102.5 58.1999C102.8 58.1999 103.1 58.1999 103.4 58.0999C103.7 57.9999 104 57.7999 104.3 57.5999C104.6 57.3999 104.8 57.0999 104.9 56.6999C105.1 56.2999 105.1 55.7999 105.1 55.2999V53.8999H109.3V55.5999H109ZM112 32.6999H116.2V45.2999H121.4V32.6999H125.6V62.1999H121.4V48.9999H116.2V62.0999H112V32.6999ZM133.9 32.6999H137.4L144 62.1999H139.8L138.6 55.8999H132.8L131.6 62.1999H127.4L133.9 32.6999ZM135.7 41.1999L133.5 51.8999H137.7L135.7 41.1999ZM146.1 36.6999H141.2V32.6999H155.2V36.6999H150.3V62.1999H146.1V36.6999ZM157 32.6999H162.3L160.7 54.8999H158.6L157 32.6999ZM157.6 57.8999H161.8V62.0999H157.6V57.8999Z" fill="white"/>
</g>
<defs>
<linearGradient id="paint0_linear_363_3" x1="90.9511" y1="92.5446" x2="93.3341" y2="55.4496" gradientUnits="userSpaceOnUse">
<stop stop-color="#C5CFD6"/>
<stop offset="0.4" stop-color="#E1E5E9"/>
<stop offset="0.679" stop-color="#F4F5F7"/>
</linearGradient>
<linearGradient id="paint1_linear_363_3" x1="82.162" y1="54.0176" x2="133.488" y2="-25.9914" gradientUnits="userSpaceOnUse">
<stop stop-color="#C5CFD6"/>
<stop offset="0.4" stop-color="#E1E5E9"/>
<stop offset="0.679" stop-color="#F4F5F7"/>
</linearGradient>
<clipPath id="clip0_363_3">
<rect width="190.1" height="101.4" fill="white"/>
</clipPath>
</defs>
</svg>
